<svg width="390" height="128" viewBox="0 0 390 128" fill="none" xmlns="http://www.w3.org/2000/svg">
<g clipPath="url(#clip0_2331_15938)">
<path d="M0 0H390V108C390 119.046 381.046 128 370 128H20C8.9543 128 0 119.046 0 108V0Z" fill="#202126"/>
<path d="M292.75 84.813C287.243 83.694 281.606 83.4759 275.815 84.0677C270.086 84.6476 264.466 86.053 258.977 87.8023C235.288 95.3405 214.152 109.134 193.344 122.767C191.754 123.808 190.097 124.926 189.235 126.622C187.981 129.093 188.74 132.083 189.684 134.693C191.363 139.313 193.555 143.75 196.207 147.885C197.112 149.3 198.123 150.728 199.568 151.577C201.099 152.477 202.943 152.633 204.714 152.638C213.514 152.674 221.99 149.644 230.453 147.211C249.097 141.853 268.687 139.298 287.977 141.331C303.755 143 319.043 147.686 334.217 152.348C334.109 152.311 333.674 148.998 334.05 148.786C335.005 148.244 336.201 148.62 337.229 149.013C339.98 150.058 343.015 150.906 345.444 152.549C347.002 153.597 349.521 155.389 351.157 153.256C351.794 152.429 351.753 151.27 351.624 150.23C350.833 143.642 348.061 137.467 344.991 131.589C339.335 120.745 332.492 110.402 323.675 101.943C317.553 96.0723 310.445 91.1439 302.615 87.8632C299.361 86.4982 296.072 85.4933 292.739 84.8141L292.75 84.813Z" fill="#27282F"/>
<path d="M47.0983 125.165C59.2234 123.416 71.1206 120.072 82.3785 115.251C96.473 109.211 109.788 100.797 124.853 97.9604C135.405 95.9689 146.311 96.8434 156.87 98.7981C183.986 103.817 209.243 115.781 234.14 127.634C232.046 145.762 229.951 163.891 227.864 182.013C227.791 182.659 227.695 183.35 227.232 183.813C226.711 184.342 225.88 184.394 225.138 184.416C178.578 185.591 131.966 184.945 85.4576 182.468C84.4361 182.417 83.3853 182.351 82.4667 181.902C81.335 181.351 80.5414 180.293 79.7992 179.279C67.3067 162.179 54.8143 145.086 42.3145 127.986" fill="#27282F"/>
<path d="M61.0285 62.1962L63.3521 62.6126C65.6839 65.9626 74.9386 76.9064 79.3081 81.8976L78.7817 84.835C78.126 84.9589 76.717 85.0442 76.3266 84.395C75.8385 83.5836 76.7608 81.2149 74.9732 80.08C73.5431 79.1722 65.0684 67.5959 61.0285 62.1962Z" fill="#1A1B20"/>
<path d="M78.7414 82.2824C78.7918 82.6071 79.8758 84.6797 80.4116 85.6754C80.7598 86.331 81.0362 86.2458 81.1309 86.1212L80.3571 82.5501L79.4256 80.9248C79.1766 81.2421 78.6911 81.9578 78.7414 82.2824Z" fill="#1A1B20"/>
<path d="M77.6808 76.0853L68.2004 63.8432L63.2574 62.6406C79.4042 84.9011 80.4919 83.3766 87.3796 84.8371C92.8897 86.0056 97.9065 89.7252 99.7261 91.439L101.46 88.5822C91.9853 81.8616 90.3545 82.8816 85.6779 81.4552C81.9367 80.3142 78.7877 77.3999 77.6808 76.0853Z" fill="#27282F"/>
<path d="M0.701138 113.77C-24.2418 126.922 -45.7255 128.384 -47 128.627H61.8751C49.7981 119.291 20.6555 103.248 0.701138 113.77Z" fill="#27282F"/>
<path d="M162.135 98.7472C162.491 99.4135 163.264 99.7137 163.974 99.9616C163.249 100.667 162.592 101.439 162.011 102.266C165.623 102.3 169.245 103.491 172.799 102.847C171.326 102.428 169.998 101.515 169.074 100.289C170.323 100.739 171.793 100.501 172.839 99.6834C171.864 98.9061 170.513 98.7034 169.589 97.8635C170.361 97.9888 171.181 97.7633 171.779 97.2595C171.82 97.2258 171.862 97.1867 171.882 97.139C171.967 96.9388 171.689 96.7876 171.478 96.7376C170.245 96.443 169.091 95.8237 168.16 94.9592C167.616 94.4524 167.38 94.6637 167.074 95.1809C166.742 95.7434 166.183 96.2206 165.679 96.6258C164.602 97.4932 163.36 98.1267 162.132 98.7478L162.135 98.7472Z" fill="#27282F"/>
<path d="M152.029 124.05C151.969 124.109 151.908 124.175 151.894 124.258C151.857 124.466 152.121 124.593 152.332 124.608C153.112 124.669 153.854 124.306 154.552 123.954C153.696 125.287 152.616 126.469 151.371 127.438C151.231 127.546 151.076 127.68 151.08 127.857C151.083 128.056 151.283 128.19 151.469 128.255C151.898 128.405 152.363 128.385 152.815 128.354C155.264 128.187 157.719 127.762 160.163 128.024C161.12 128.126 162.062 128.333 163 128.541C163.106 128.391 163.031 128.183 162.946 128.02C162.129 126.446 160.648 125.351 159.22 124.312C160.464 124.141 161.653 123.583 162.584 122.733C162.291 122.245 161.605 122.263 161.044 122.2C159.6 122.045 158.413 121.028 157.309 120.074C157.16 119.945 156.993 119.81 156.796 119.803C156.508 119.795 156.11 120.568 155.908 120.775C155.507 121.186 155.067 121.558 154.618 121.916C153.745 122.614 152.823 123.26 152.029 124.05Z" fill="#1A1B20"/>
<path d="M241.564 125.284C253.131 123.538 264.481 120.2 275.221 115.388C288.667 109.358 301.37 100.958 315.741 98.1265C325.808 96.1385 336.211 97.0115 346.285 98.9628C372.154 103.973 396.249 115.916 420 127.749C418.002 145.846 416.004 163.943 414.013 182.034C413.943 182.679 413.852 183.369 413.41 183.831C412.912 184.359 412.12 184.41 411.412 184.432C366.994 185.606 322.527 184.96 278.158 182.488C277.184 182.437 276.181 182.371 275.305 181.923C274.225 181.373 273.468 180.317 272.76 179.305C260.842 162.234 248.925 145.171 237 128.101" fill="#1A1B20"/>
<path d="M317.701 94.8341C317.552 94.9312 317.384 95.0688 317.415 95.2428C317.447 95.425 317.671 95.4924 317.856 95.5136C318.588 95.6009 319.338 95.5432 320.049 95.345C319.558 96.7675 318.041 97.5523 317.197 98.798C317.764 98.8955 318.345 98.8011 318.913 98.718C321.802 98.2969 324.73 98.1579 327.644 98.3009C326.326 96.9017 324.819 95.6826 323.173 94.6891C324.194 94.6094 325.299 94.4947 326.049 93.7974C326.12 93.7306 326.193 93.639 326.16 93.5472C326.131 93.4693 326.043 93.4369 325.963 93.4162C325.556 93.3131 325.127 93.3079 324.716 93.2133C323.367 92.9073 322.501 91.7043 321.336 91.0647C321.203 90.9925 321.039 90.9637 320.902 91.0271C320.71 91.1152 320.636 91.3421 320.569 91.5419C320.055 93.0747 319.011 93.9825 317.7 94.83L317.701 94.8341Z" fill="#1A1B20"/>
<path d="M374.316 107.178C374.125 107.218 373.886 107.307 373.888 107.502C373.889 107.604 373.962 107.689 374.041 107.753C374.311 107.972 374.673 108.036 375.02 108.066C375.617 108.117 376.199 108.067 376.789 107.985C375.5 108.915 374.111 109.7 372.632 110.291C372.238 110.447 372.007 110.874 372.446 111.134C372.813 111.353 383.967 111.035 384.264 110.757C384.608 110.437 383.911 110.155 383.719 110.055C382.552 109.447 381.516 108.589 380.701 107.556C381.642 108.019 382.961 108.134 383.932 107.684C384.03 107.638 384.141 107.56 384.129 107.451C384.118 107.36 384.023 107.304 383.939 107.267C382.257 106.522 380.268 106.355 379.404 104.449C379.369 104.372 379.336 104.292 379.277 104.234C379.218 104.175 379.122 104.141 379.048 104.18C379.001 104.205 378.973 104.251 378.945 104.296C378.1 105.652 377.037 106.324 375.537 106.841C375.138 106.979 374.732 107.092 374.319 107.179L374.316 107.178Z" fill="#1A1B20"/>
<path d="M325.014 94.4421C325.412 95.1882 326.277 95.5243 327.072 95.802C326.261 96.5916 325.524 97.4562 324.874 98.3826C328.92 98.4206 332.975 99.7545 336.956 99.0336C335.306 98.5643 333.818 97.5415 332.784 96.1684C334.183 96.6725 335.828 96.4063 336.999 95.4904C335.908 94.62 334.395 94.393 333.361 93.4525C334.225 93.5927 335.143 93.3402 335.813 92.7761C335.859 92.7383 335.906 92.6946 335.928 92.6412C336.024 92.417 335.713 92.2476 335.476 92.1916C334.095 91.8617 332.803 91.1683 331.76 90.2002C331.151 89.6326 330.886 89.8693 330.544 90.4484C330.172 91.0783 329.546 91.6127 328.982 92.0664C327.775 93.0378 326.385 93.7472 325.01 94.4427L325.014 94.4421Z" fill="#1A1B20"/>
<path d="M56.0797 84.811C61.5873 83.692 67.2238 83.4739 73.0155 84.0657C78.7443 84.6456 84.3646 86.0511 89.8528 87.8004C113.542 95.3386 134.678 109.132 155.486 122.765C157.076 123.806 158.733 124.924 159.595 126.62C160.849 129.091 160.09 132.081 159.146 134.691C157.467 139.311 155.275 143.748 152.623 147.883C151.718 149.298 150.707 150.726 149.262 151.576C147.731 152.475 145.887 152.631 144.116 152.636C135.316 152.673 126.84 149.642 118.377 147.209C99.7328 141.851 80.1433 139.296 60.8526 141.329C45.0746 142.998 29.7872 147.684 14.6128 152.346C14.7211 152.309 15.1561 148.996 14.7803 148.784C13.8247 148.242 12.6293 148.618 11.6013 149.011C8.85032 150.056 5.81538 150.904 3.38559 152.547C1.82847 153.595 -0.69139 155.387 -2.32713 153.254C-2.96414 152.427 -2.92261 151.268 -2.79353 150.228C-2.00296 143.64 0.76932 137.465 3.83921 131.587C9.4952 120.744 16.3381 110.4 25.1551 101.941C31.2768 96.0704 38.3856 91.142 46.2155 87.8612C49.4691 86.4963 52.758 85.4913 56.0912 84.8121L56.0797 84.811Z" fill="#1A1B20"/>
<path d="M136.094 96.3062C136.141 96.5531 146.305 96.8003 151.058 97.3941C153.481 97.6957 155.907 98.0014 158.33 98.3031C158.449 98.318 158.576 98.3296 158.673 98.2619C158.763 98.1975 158.796 98.0872 158.826 97.9805C159.485 95.5484 159.789 93.0212 159.728 90.5029C154.799 89.1661 138.365 87.6677 137.903 88.6432C137.098 90.3458 136.083 96.2435 136.094 96.3062Z" fill="#7D1F1F"/>
<path d="M141.241 97.9702C141.993 98.0158 142.64 97.4426 142.686 96.6899C142.732 95.9373 142.158 95.2903 141.406 95.2447C140.653 95.1992 140.006 95.7724 139.96 96.525C139.915 97.2776 140.488 97.9246 141.241 97.9702Z" fill="#1C1F47"/>
<path d="M153.891 98.7361C154.644 98.7816 155.291 98.2084 155.336 97.4558C155.382 96.7032 154.809 96.0561 154.056 96.0106C153.303 95.965 152.656 96.5382 152.611 97.2908C152.565 98.0435 153.139 98.6905 153.891 98.7361Z" fill="#1C1F47"/>
<path d="M138.739 89.496C138.788 89.5068 138.834 89.5173 138.884 89.5281C138.8 89.8329 138.209 94.1561 138.139 94.1557C137.996 94.1548 136.501 94.0062 136.498 94.0564C136.521 93.4882 137.021 91.3022 137.153 90.7987C137.259 90.3906 137.361 89.9783 137.498 89.5759C137.521 89.5114 137.548 89.4434 137.608 89.4121C137.648 89.3913 138.41 89.4257 138.739 89.496Z" fill="#FFDCAC"/>
<path d="M145.654 94.8391L139.576 94.3085C139.576 94.3085 139.922 90.1952 140.376 89.7306C140.549 89.5551 142.961 89.7863 146.388 90.1333" fill="#FFDCAC"/>
<path d="M154.585 90.9937L154.087 95.5744L159.279 96.0281C159.279 96.0281 159.583 95.1852 159.769 93.8576C159.955 92.5301 159.759 91.6092 159.759 91.6092C159.759 91.6092 157.902 91.3728 154.585 90.9899L154.585 90.9937Z" fill="#FFDCAC"/>
<path d="M153.844 90.9063C151.782 90.6691 149.445 90.4076 147.281 90.1875L146.665 94.9275L153.24 95.5038" fill="#FFDCAC"/>
<path d="M271.972 131.247C268.803 131.72 264.469 132.032 261.478 131.924C261.858 121.606 262.024 110.477 262.125 100.617C264.175 100.396 268.712 98.894 270.619 99.8589C271.183 100.142 271.653 131.215 271.972 131.247Z" fill="#14151F"/>
<path d="M271.106 88.2979C274.488 88.3295 278.911 88.2227 282.293 88.2544C282.964 101.471 281.409 116.382 282.265 130.054C282.286 130.361 273.186 130.591 270.968 130.364C270.511 130.318 270.168 129.921 270.193 129.458C270.308 127.062 270.174 118.848 270.19 116.802C270.213 114.408 270.665 88.2933 271.106 88.2979Z" fill="#303144"/>
<path d="M280.384 131.466C283.539 131.637 287.852 131.599 290.825 131.31C290.363 122.942 290.104 113.902 289.922 105.888C287.881 105.847 283.357 104.93 281.468 105.844C280.91 106.112 280.701 131.418 280.384 131.466Z" fill="#14151F"/>
<path d="M272.606 95.2535C272.736 95.3732 274.469 95.2087 275.148 95.2788C275.142 93.878 275.195 92.4764 275.304 91.0844C274.42 91.0514 273.53 91.0441 272.645 91.0655C272.601 92.2976 272.499 95.1543 272.606 95.2535Z" fill="#14151F"/>
<path d="M272.743 101.221C273.525 101.233 274.307 101.245 275.089 101.252C275.148 101.251 275.213 101.254 275.261 101.221C275.354 101.165 275.361 101.04 275.362 100.931C275.369 99.7948 275.371 98.659 275.378 97.5224C275.376 97.4537 275.378 97.3842 275.338 97.3272C275.279 97.2441 275.16 97.2409 275.057 97.2447C274.272 97.2727 273.441 97.2351 272.673 97.3539C272.632 97.6771 272.714 101.221 272.743 101.221Z" fill="#FFDCAC"/>
<path d="M272.975 107.765C273.04 107.798 273.113 107.794 273.187 107.791C273.85 107.745 274.514 107.704 275.177 107.659C275.274 107.651 275.385 107.636 275.43 107.554C275.455 107.505 275.455 107.451 275.451 107.397C275.391 106.218 275.375 104.79 275.316 103.611C275.314 103.547 272.825 103.458 272.819 103.671C272.799 104.573 272.85 107.703 272.975 107.765Z" fill="#14151F"/>
<path d="M285.17 125.116L289.239 121.628L288.907 128.937L285.419 129.186L285.17 125.116Z" fill="#14151F"/>
<path d="M297.793 110.001L295.219 102.693L299.122 102.693L301.78 110.001L297.793 110.001Z" fill="#0F0F12"/>
<path d="M292.396 110.665L294.888 101.779L297.712 109.669L294.39 115.649L292.396 110.665Z" fill="#0F0F12"/>
<path d="M292.464 110.841L294.895 102.884L294.674 101.779L292.021 109.957L292.464 110.841Z" fill="#14151F"/>
<path d="M293.973 115.815L297.212 109.42L297.959 111.496L297.959 122.126L294.554 121.877L294.886 117.642L293.973 115.815Z" fill="#14151F"/>
<path d="M307.715 106.862L306.61 103.768L305.062 103.547V106.862H307.715Z" fill="#14151F"/>
<path d="M289.24 121.628L288.908 128.937L308.674 128.438L309.588 112.493L307.428 106.347L305.435 106.347L305.435 103.772L306.515 103.772L306.266 102.859L294.556 101.779L294.805 102.859L298.708 103.108L301.034 109.752L297.213 109.42L297.878 111.496L297.878 121.96L289.24 121.628Z" fill="#303144"/>
<path d="M263.847 129.272H249V98.5912L263.847 96.4156V129.272Z" fill="#4C5069"/>
<path d="M250.154 102.656L251.192 101.936C251.578 101.67 252.052 101.387 252.489 101.554C252.946 101.729 253.213 102.346 253.698 102.318C254.04 102.298 254.279 101.956 254.609 101.869C255.05 101.753 255.46 102.111 255.774 102.437C256.431 101.511 256.928 100.469 257.242 99.3787C255.91 99.2872 254.541 99.7884 253.591 100.727C252.927 100.134 252.163 99.6492 251.34 99.3071C251.141 99.7566 251.029 100.242 251.002 100.731C250.831 100.437 250.628 100.206 250.333 100.122C250.154 100.922 250.198 101.837 250.15 102.66L250.154 102.656Z" fill="#14151F"/>
<path d="M258.352 100.663C257.93 101.089 257.569 101.582 257.294 102.115C257.266 102.171 257.234 102.234 257.25 102.294C257.27 102.39 257.374 102.437 257.465 102.469C258.479 102.831 259.525 103.102 260.591 103.273C260.659 102.74 260.731 102.211 260.798 101.678C260.806 101.614 260.814 101.546 260.782 101.491C260.746 101.431 260.671 101.403 260.603 101.383C259.899 101.165 259.195 100.95 258.491 100.731C258.408 100.703 258.316 100.679 258.233 100.707C258.149 100.735 258.09 100.846 258.145 100.918" fill="#14151F"/>
<path d="M262.384 98.2969C262.317 98.2173 262.213 98.1775 262.114 98.1457C261.788 98.0383 261.457 97.9548 261.119 97.8991C260.913 97.8633 260.694 97.8395 260.487 97.8872C260.312 97.9309 260.153 98.0264 260.002 98.1258C259.803 98.2571 258.709 98.9094 258.836 99.1281C258.968 99.3548 260.248 99.2673 260.507 99.2793C260.71 99.2912 260.925 99.3071 261.1 99.4105C261.211 99.4781 261.298 99.5776 261.382 99.677C261.72 100.067 262.054 100.457 262.392 100.846C262.515 100.357 262.579 99.852 262.579 99.3469C262.579 99.0565 262.587 98.5315 262.384 98.2969Z" fill="#14151F"/>
<path d="M260.543 105.611C261.235 105.786 261.931 105.961 262.623 106.136C262.691 105.516 263.291 103.078 262.213 103.002C261.406 102.946 260.976 105.723 260.543 105.611Z" fill="#14151F"/>
<path d="M259.024 107.679C258.789 107.302 258.367 106.971 258.041 106.681C257.846 106.51 257.648 106.347 257.445 106.188C257.349 106.112 256.836 105.838 256.816 105.739L257.067 107.131C256.53 107.234 255.886 107.306 255.524 106.896C255.408 106.765 255.333 106.594 255.194 106.486C254.867 106.236 254.406 106.458 254.056 106.677C253.706 106.896 253.229 107.099 252.923 106.824C252.815 106.729 252.755 106.59 252.7 106.458C252.549 106.1 252.401 105.743 252.25 105.385C252.234 105.341 252.215 105.297 252.223 105.249C252.238 105.15 252.362 105.106 252.461 105.09C253.225 104.955 254 104.903 254.772 104.943C254.486 104.47 254.199 104 253.909 103.527C254.358 103.408 254.808 103.292 255.261 103.173C255.313 103.161 255.373 103.145 255.424 103.161C255.548 103.201 255.563 103.364 255.567 103.491C255.583 104 255.754 104.506 256.049 104.919C256.049 104.923 257.52 104.41 257.663 104.374C258.153 104.251 258.721 104.16 259.227 104.167C259.306 104.167 259.398 104.183 259.433 104.251C259.453 104.287 259.449 104.335 259.445 104.374C259.358 105.428 259.254 106.478 259.135 107.532C259.127 107.612 259.111 107.672 259.04 107.711C259.032 107.695 259.024 107.679 259.012 107.668L259.024 107.679Z" fill="#14151F"/>
<path d="M250.667 103.404C250.532 103.519 250.512 103.714 250.504 103.893C250.456 104.875 250.476 105.858 250.563 106.836C250.512 106.24 251.442 104.883 251.665 104.271C251.769 103.984 252.099 103.499 251.844 103.245C251.649 103.046 250.846 103.257 250.667 103.408V103.404Z" fill="#14151F"/>
<path d="M250.24 108.837C250.153 109.517 250.125 110.205 250.153 110.889C250.153 110.961 250.161 111.036 250.213 111.084C250.26 111.128 250.336 111.132 250.404 111.132C251.577 111.116 252.746 111.028 253.912 110.877C253.343 110.953 251.461 106.375 251.398 109.187C251.008 109.107 250.626 108.968 250.24 108.841V108.837Z" fill="#14151F"/>
<path d="M255.273 107.787C255.202 107.739 255.114 107.743 255.031 107.747C254.589 107.767 254.128 107.795 253.758 108.029C253.678 108.081 253.599 108.149 253.571 108.24C253.535 108.359 253.599 108.487 253.662 108.594C253.941 109.036 254.335 109.405 254.792 109.656C254.871 109.7 255.217 108.431 255.257 108.348C255.301 108.256 255.353 108.165 255.369 108.061C255.385 107.962 255.357 107.842 255.273 107.787Z" fill="#14151F"/>
<path d="M257.132 107.982C256.981 108.049 256.894 108.208 256.822 108.359C256.389 109.278 256.094 110.265 255.955 111.275C256.91 110.945 257.781 110.388 258.481 109.66C258.413 109.958 258.345 110.253 258.278 110.551C258.23 110.754 258.23 111.036 258.429 111.092C258.509 111.116 258.596 111.084 258.676 111.056C259.236 110.841 259.769 110.543 260.247 110.177C260.326 110.113 260.414 110.042 260.434 109.942C260.477 109.712 260.179 109.588 259.956 109.517C259.018 109.226 258.31 107.457 257.14 107.978L257.132 107.982Z" fill="#14151F"/>
<path d="M262.297 107.107C261.916 107.019 261.526 106.988 261.136 107.007C261.029 107.011 260.909 107.027 260.838 107.107C260.746 107.21 260.643 107.64 260.631 107.791C260.607 108.081 260.79 108.376 261.017 108.543C261.283 108.734 261.971 108.972 262.301 108.889C262.683 108.793 262.695 108.061 262.723 107.703C262.739 107.532 262.731 107.338 262.604 107.226C262.536 107.167 262.449 107.143 262.361 107.119C262.341 107.115 262.321 107.111 262.301 107.103L262.297 107.107Z" fill="#14151F"/>
<path d="M250.18 113.411C250.121 114.234 250.057 115.439 250.145 115.467C250.419 115.562 250.685 115.312 250.864 115.081C251.541 114.21 252.193 113.343 252.738 112.381C252.77 112.325 252.805 112.257 252.785 112.194C252.758 112.11 252.658 112.082 252.571 112.066C251.918 111.967 251.238 112.023 250.61 112.237C250.506 112.273 250.399 112.317 250.331 112.404C250.272 112.48 250.256 112.579 250.24 112.675C250.228 112.762 250.2 113.049 250.176 113.411H250.18Z" fill="#14151F"/>
<path d="M254.086 114.648C253.756 114.357 253.18 113.793 252.714 114.055C252.547 114.147 252.424 114.302 252.316 114.457C252.185 114.648 252.066 114.858 252.038 115.089C252.026 115.181 252.034 115.28 252.086 115.356C252.257 115.602 254.416 115.435 254.44 115.248C254.468 115.01 254.273 114.807 254.09 114.648H254.086Z" fill="#14151F"/>
<path d="M255.754 113.14C255.316 112.747 255.793 112.357 255.765 111.975C255.765 111.931 255.742 111.888 255.718 111.848C255.531 111.506 255.229 111.227 254.875 111.068C254.823 111.044 254.759 111.024 254.707 111.052C254.68 111.068 254.664 111.096 254.648 111.124C254.525 111.327 254.433 111.549 254.377 111.78C254.357 111.86 254.338 111.943 254.29 112.007C254.25 112.063 254.186 112.098 254.131 112.138C253.836 112.345 253.435 112.842 253.602 113.228C253.741 113.554 254.175 113.61 254.528 113.61C254.882 113.61 255.304 113.634 255.487 113.936C255.582 114.095 255.582 114.29 255.63 114.469C255.678 114.648 255.817 114.835 256.004 114.819C256.171 114.803 256.275 114.632 256.35 114.481C256.509 114.159 256.672 113.836 256.831 113.514C256.664 113.156 256.052 113.407 255.757 113.144L255.754 113.14Z" fill="#14151F"/>
<path d="M258.606 112.369C258.522 112.373 258.431 112.385 258.379 112.448C258.335 112.5 258.335 112.576 258.335 112.643C258.331 113.888 258.236 115.137 258.053 116.37C258.82 116.159 259.52 115.702 260.029 115.085C260.101 114.994 260.177 114.886 260.153 114.775C260.137 114.696 260.073 114.636 260.014 114.58C259.763 114.346 259.508 114.111 259.258 113.876C259.453 113.65 259.787 113.61 260.077 113.538C260.368 113.467 260.694 113.284 260.706 112.981C260.737 112.051 259.095 112.337 258.614 112.365L258.606 112.369Z" fill="#14151F"/>
<path d="M261.867 110.249L260.69 111.024C260.634 111.06 260.57 111.108 260.57 111.176C260.57 111.215 260.594 111.251 260.614 111.283C261.02 111.903 261.421 112.524 261.827 113.14C261.911 113.268 262.058 113.415 262.193 113.339C262.253 113.303 262.285 113.232 262.308 113.168C262.639 112.202 262.487 111.084 261.915 110.237" fill="#14151F"/>
<path d="M262.725 114.87C262.685 114.675 262.498 114.556 262.351 114.425C262.232 114.318 262.112 114.186 261.949 114.174C261.715 114.158 261.556 114.401 261.452 114.608C261.13 115.272 260.776 115.964 260.482 116.62C260.45 116.688 261.043 116.612 261.082 116.6C261.293 116.529 261.488 116.41 261.651 116.262C261.933 116.008 262.232 115.733 262.482 115.443C262.621 115.28 262.769 115.081 262.721 114.87H262.725Z" fill="#14151F"/>
<path d="M254.745 117.663C254.678 117.75 254.61 117.841 254.59 117.949C254.55 118.203 254.801 118.402 255.036 118.514C255.394 118.681 255.775 118.788 256.169 118.832C256.269 118.844 256.38 118.848 256.467 118.796C256.575 118.732 256.623 118.609 256.662 118.49C256.829 117.989 257.716 115.833 257.044 115.491C256.515 115.22 255.063 117.261 254.745 117.663Z" fill="#14151F"/>
<path d="M260.511 117.484C260.336 117.265 260.117 117.054 259.843 117.018C259.636 116.99 259.425 117.062 259.25 117.177C259.123 117.265 259.008 117.372 258.908 117.495C258.491 117.865 258.24 118.498 258.141 119.007C258.904 118.872 259.652 118.653 260.368 118.351C260.483 118.303 260.599 118.247 260.666 118.144C260.797 117.941 260.662 117.674 260.511 117.488V117.484Z" fill="#14151F"/>
<path d="M250.913 116.259C250.515 116.406 250.4 116.899 250.34 117.316C250.305 117.575 250.265 117.834 250.229 118.092C250.189 118.359 250.221 118.724 250.487 118.768C250.619 118.788 250.742 118.713 250.849 118.637C251.132 118.442 251.414 118.247 251.701 118.052C251.808 117.981 251.923 117.901 252.055 117.901C252.174 117.901 252.285 117.969 252.385 118.032C252.687 118.223 252.993 118.414 253.295 118.609C253.47 118.247 254.155 116.99 253.984 116.601C253.773 116.119 253.685 116.422 253.184 116.501C252.683 116.581 252.615 116.704 252.078 116.573C251.681 116.473 251.366 116.091 250.913 116.259Z" fill="#14151F"/>
<path d="M254.226 119.798C253.614 120.371 253.037 120.98 252.496 121.616C252.349 121.791 252.198 122.042 252.325 122.232C252.401 122.344 252.548 122.38 252.679 122.407C253.359 122.539 254.055 122.582 254.747 122.535C254.871 122.527 255.006 122.507 255.077 122.407C255.141 122.316 255.129 122.193 255.109 122.081C254.982 121.346 254.759 120.626 254.457 119.946" fill="#14151F"/>
<path d="M257.869 120.649C257.491 120.797 256.823 120.952 256.608 121.322C256.421 121.648 256.504 122.153 256.787 122.392C257.145 122.694 257.443 122.423 257.662 122.121C257.737 122.018 257.793 121.894 257.845 121.775C257.948 121.532 258.056 121.294 258.159 121.051C258.227 120.896 258.298 120.733 258.286 120.562C258.143 120.542 258 120.59 257.869 120.642V120.649Z" fill="#14151F"/>
<path d="M259.657 121.23C259.521 121.246 259.374 121.262 259.267 121.346C259.104 121.469 259.072 121.7 259.056 121.902C259.036 122.133 259.044 122.423 259.255 122.523C259.362 122.575 259.486 122.555 259.605 122.531C260.337 122.396 261.073 122.26 261.804 122.125C262.433 122.01 262.914 121.429 262.214 121.019C261.733 120.737 260.202 121.171 259.657 121.23Z" fill="#14151F"/>
<path d="M262.278 117.726C262.142 117.635 262.003 117.539 261.84 117.523C261.677 117.507 261.494 117.607 261.474 117.77C261.458 117.909 261.562 118.028 261.657 118.132C262.007 118.502 262.361 118.872 262.711 119.241C262.747 119.281 262.787 119.321 262.842 119.325C262.97 119.337 263.013 119.162 262.994 119.035C262.926 118.534 262.66 118.064 262.262 117.754" fill="#14151F"/>
<path d="M252.647 119.265C252.603 119.249 252.551 119.249 252.507 119.253C251.939 119.277 251.406 119.488 250.897 119.727C250.403 119.957 250.288 120.236 250.248 120.777C250.212 121.274 250.209 121.775 250.24 122.272C250.753 122.173 251.143 121.64 251.084 121.119C251.072 121.023 251.048 120.924 251.084 120.832C251.163 120.606 251.477 120.618 251.72 120.63C252.301 120.661 252.802 120.208 252.822 119.603C252.826 119.468 252.778 119.309 252.651 119.265H252.647Z" fill="#14151F"/>
<path d="M251.769 124.217H250.143V129.276H251.769V124.217Z" fill="#14151F"/>
<path d="M258.613 124.217H252.373V129.276H258.613V124.217Z" fill="#14151F"/>
<path d="M261.091 119.775C261.063 119.568 260.856 119.421 260.649 119.397C260.443 119.373 260.236 119.444 260.045 119.524C259.782 119.635 259.528 119.763 259.285 119.91C260.021 120.113 260.797 120.168 261.552 120.077C261.429 119.954 261.306 119.834 261.182 119.711" fill="#14151F"/>
<path d="M170.092 101.218C170.995 101.311 171.932 101.108 172.703 100.635C171.667 101.968 170.049 102.747 168.411 103.213C168.343 103.476 168.677 103.652 168.947 103.703C169.631 103.836 170.337 103.848 171.026 103.743C171.198 103.716 172.011 103.411 172.126 103.491C172.362 103.653 171.983 104.062 171.856 104.256C171.13 105.362 170.174 106.32 169.061 107.051C168.479 107.433 167.82 107.79 167.516 108.411C167.462 108.519 167.422 108.645 167.461 108.759C167.536 108.973 167.826 109.005 168.056 108.999C172.203 108.895 176.351 108.792 180.498 108.688C180.846 108.68 181.267 108.625 181.405 108.311C181.571 107.935 181.189 107.559 180.851 107.32C180.162 106.836 179.472 106.353 178.818 105.823C178.37 105.46 177.153 104.646 177.121 104.053C177.988 104.296 178.825 104.361 179.726 104.355C179.877 104.355 180.034 104.352 180.171 104.289C180.564 104.11 180.575 103.521 180.307 103.187C180.04 102.853 179.608 102.701 179.209 102.537C178.087 102.077 177.057 101.404 176.19 100.564C176.615 100.756 177.208 100.663 177.65 100.583C177.809 100.554 179.102 100.038 179.113 100.047C178.553 99.6297 177.836 99.468 177.252 99.0859C176.628 98.6775 176.212 98.0535 175.814 97.4439C175.573 97.075 174.999 95.8521 174.473 96.015C173.993 96.1635 173.463 97.5205 173.154 97.9265C172.684 98.5458 172.147 99.1159 171.556 99.6249C171.34 99.8118 170.59 100.5 170.008 100.865C169.852 100.962 169.907 101.2 170.09 101.219L170.092 101.218Z" fill="#27282F"/>
<path d="M129.993 103.201C129.98 103.266 129.972 103.339 130.009 103.397C130.059 103.48 130.172 103.491 130.268 103.493C131.094 103.521 131.925 103.537 132.751 103.536C132.818 103.538 131.755 94.6219 131.43 94.4059C131.08 95.8227 130.944 97.3305 130.711 98.7705L129.993 103.196L129.993 103.201Z" fill="#14151F"/>
<path d="M129.409 102.722C129.332 103.602 129.298 104.486 129.304 105.372C129.056 105.366 128.805 105.388 128.561 105.423C128.487 105.433 128.408 105.448 128.354 105.495C128.28 105.562 128.267 105.671 128.263 105.772C128.22 106.45 128.26 107.106 128.205 107.784C127.821 107.799 127.437 107.814 127.053 107.829C127.02 107.828 127.032 112.47 127.027 112.886C130.073 113.323 133.578 113.148 136.571 113.195C136.571 113.195 135.835 109.527 135.43 107.714L134.439 107.67C134.214 107.001 134.075 106.311 134.022 105.61C133.849 105.477 133.325 105.593 133.255 105.458C133.243 105.434 133.238 105.401 133.238 105.373C133.174 104.49 133.155 103.604 133.174 102.719C131.935 102.552 130.647 102.61 129.409 102.718L129.409 102.722Z" fill="#303144"/>
<path d="M131.212 108.995C131.407 108.773 131.655 108.577 131.952 108.532C132.369 108.465 132.793 108.713 133.04 109.054C133.287 109.395 133.398 109.81 133.483 110.22C133.618 110.865 133.712 111.522 133.764 112.177C133.083 112.161 130.212 111.951 130.212 111.951C130.212 111.951 130.367 110.796 130.475 110.427C130.624 109.905 130.852 109.402 131.216 108.995L131.212 108.995Z" fill="#14151F"/>
<path d="M148.5 130.14L126.994 130.036L127.029 112.458L147.673 112.948L148.5 130.14Z" fill="#14151F"/>
<path d="M127.829 112.872C127.685 118.271 127.278 124.987 127.11 130.386C123.512 130.421 115.54 129.167 115.511 128.8C115.145 123.482 114.913 117.301 115.089 111.983C115.897 111.962 116.607 111.772 117.419 111.75C117.3 111.19 117.272 110.612 117.34 110.048C117.352 109.942 117.373 109.829 117.444 109.753C117.535 109.658 117.676 109.653 117.805 109.652C118.269 109.651 118.733 109.654 119.193 109.653L119.259 107.938C119.715 107.949 120.166 107.96 120.622 107.971L120.842 105.929C121.352 105.881 121.866 105.877 122.375 105.926C122.432 106.639 122.451 107.36 122.433 108.075L124.161 108.239C124.218 108.973 124.237 109.709 124.219 110.441L125.686 110.607C125.664 111.192 125.68 111.783 125.728 112.37L127.746 112.569C127.775 112.687 127.829 112.75 127.825 112.872L127.829 112.872Z" fill="#303144"/>
<path d="M121.461 114.27C122.402 114.657 123.069 113.896 122.996 113.064C122.964 112.691 122.919 112.297 122.701 111.985C122.33 111.45 121.64 111.518 121.214 111.908C120.871 112.228 120.655 112.688 120.683 113.159C120.711 113.629 121.012 114.089 121.457 114.27L121.461 114.27Z" fill="#14151F"/>
<path d="M132.383 115.177L129.885 115.117L129.879 117.998L132.377 118.058L132.383 115.177Z" fill="#0F0F12"/>
<path d="M136.779 115.208L134.281 115.148L134.275 118.028L136.774 118.088L136.779 115.208Z" fill="#0F0F12"/>
<path d="M141.311 115.239L138.812 115.18L138.807 118.06L141.305 118.12L141.311 115.239Z" fill="#FFDCAC"/>
<path d="M145.848 115.271L143.35 115.211L143.344 118.092L145.842 118.151L145.848 115.271Z" fill="#FFDCAC"/>
<path d="M90.3194 106.762L90.613 113.809H89.0469V102.944L90.3194 106.762Z" fill="#1E1817"/>
<path d="M75 129.863L76.0767 113.271L82.2131 113.23L82.4393 103.14H89.0466V113.183L101.331 113.1V102.797H108.575L108.842 113.049L112.245 113.026C112.507 115.784 112.98 123.079 112.784 130.205L75 129.863Z" fill="#3F3230"/>
<path d="M80.2213 123.047L77.8516 123.006L77.8386 127.549L80.2084 127.589L80.2213 123.047Z" fill="#1E1817"/>
<path d="M84.403 123.095L82.0332 123.054L82.0203 127.597L84.3901 127.637L84.403 123.095Z" fill="#FFDCAC"/>
<path d="M88.7155 123.144L86.3457 123.103L86.3328 127.646L88.7025 127.686L88.7155 123.144Z" fill="#1E1817"/>
<path d="M93.0338 123.193L90.6641 123.152L90.6511 127.695L93.0209 127.735L93.0338 123.193Z" fill="#1E1817"/>
<path d="M97.2721 123.047L94.9023 123.006L94.8894 127.549L97.2592 127.589L97.2721 123.047Z" fill="#1E1817"/>
<path d="M101.456 123.095L99.0859 123.054L99.073 127.597L101.443 127.637L101.456 123.095Z" fill="#1E1817"/>
<path d="M105.768 123.144L103.398 123.103L103.386 127.646L105.755 127.686L105.768 123.144Z" fill="#1E1817"/>
<path d="M110.087 123.193L107.717 123.152L107.704 127.695L110.074 127.735L110.087 123.193Z" fill="#1E1817"/>
<path fill-rule="evenodd" clip-rule="evenodd" d="M105.461 104.021C105.542 104.021 105.607 104.087 105.607 104.168C105.607 104.291 105.555 104.893 105.478 105.527C105.44 105.845 105.395 106.176 105.346 106.463C105.329 106.567 105.311 106.666 105.292 106.758C105.376 106.723 105.467 106.694 105.557 106.669C105.727 106.622 105.914 106.586 106.065 106.556C106.133 106.543 106.194 106.531 106.243 106.52C106.322 106.503 106.401 106.553 106.418 106.632C106.436 106.711 106.386 106.79 106.306 106.807C106.245 106.821 106.177 106.834 106.104 106.848C105.958 106.876 105.795 106.908 105.635 106.952C105.518 106.984 105.413 107.021 105.329 107.063C105.243 107.106 105.197 107.147 105.177 107.18C105.138 107.245 105.056 107.269 104.988 107.237C104.92 107.204 104.887 107.125 104.913 107.054C104.959 106.927 105.009 106.699 105.057 106.415C105.104 106.133 105.149 105.808 105.187 105.491C105.264 104.854 105.314 104.27 105.314 104.168C105.314 104.087 105.38 104.021 105.461 104.021Z" fill="#917976"/>
<path fill-rule="evenodd" clip-rule="evenodd" d="M105.236 104.168C105.236 104.043 105.337 103.941 105.462 103.941C105.587 103.941 105.688 104.043 105.688 104.168C105.688 104.297 105.635 104.904 105.559 105.536C105.52 105.856 105.475 106.188 105.426 106.477C105.417 106.53 105.408 106.583 105.398 106.634C105.444 106.619 105.491 106.605 105.538 106.592C105.71 106.545 105.9 106.508 106.05 106.479L106.051 106.478C106.12 106.465 106.18 106.453 106.227 106.443C106.349 106.416 106.47 106.493 106.497 106.615C106.524 106.737 106.447 106.858 106.325 106.885C106.262 106.898 106.193 106.912 106.121 106.926L106.12 106.926C105.974 106.955 105.814 106.986 105.658 107.029C105.543 107.06 105.443 107.095 105.366 107.134C105.285 107.175 105.255 107.207 105.246 107.221C105.186 107.321 105.06 107.359 104.955 107.308C104.85 107.258 104.8 107.137 104.84 107.027C104.883 106.907 104.932 106.686 104.98 106.401C105.027 106.122 105.071 105.797 105.109 105.482C105.187 104.843 105.236 104.264 105.236 104.168ZM105.462 104.1C105.425 104.1 105.395 104.13 105.395 104.168C105.395 104.276 105.344 104.865 105.267 105.501C105.229 105.818 105.184 106.145 105.136 106.428C105.088 106.712 105.038 106.946 104.989 107.081C104.977 107.114 104.992 107.15 105.023 107.165C105.055 107.18 105.092 107.169 105.11 107.139C105.141 107.087 105.204 107.038 105.295 106.992C105.385 106.947 105.496 106.908 105.616 106.876C105.778 106.831 105.944 106.799 106.089 106.77L106.09 106.77C106.163 106.756 106.23 106.743 106.291 106.73C106.327 106.722 106.35 106.686 106.342 106.649C106.334 106.613 106.298 106.59 106.262 106.598C106.212 106.609 106.15 106.621 106.083 106.634L106.082 106.634C105.93 106.664 105.746 106.7 105.58 106.746C105.491 106.77 105.404 106.798 105.324 106.831C105.296 106.842 105.265 106.837 105.243 106.819C105.22 106.8 105.21 106.77 105.216 106.742C105.234 106.651 105.252 106.553 105.269 106.45C105.318 106.165 105.362 105.835 105.401 105.517C105.478 104.883 105.529 104.285 105.529 104.168C105.529 104.13 105.499 104.1 105.462 104.1Z" fill="#917976"/>
<path fill-rule="evenodd" clip-rule="evenodd" d="M105.001 108.475C105.947 108.475 106.714 107.708 106.714 106.762C106.714 105.816 105.947 105.049 105.001 105.049C104.055 105.049 103.288 105.816 103.288 106.762C103.288 107.708 104.055 108.475 105.001 108.475ZM105.001 108.768C106.109 108.768 107.007 107.87 107.007 106.762C107.007 105.654 106.109 104.755 105.001 104.755C103.893 104.755 102.994 105.654 102.994 106.762C102.994 107.87 103.893 108.768 105.001 108.768Z" fill="#917976"/>
<path fill-rule="evenodd" clip-rule="evenodd" d="M105.002 104.834C103.938 104.834 103.075 105.697 103.075 106.762C103.075 107.826 103.938 108.689 105.002 108.689C106.066 108.689 106.929 107.826 106.929 106.762C106.929 105.697 106.066 104.834 105.002 104.834ZM102.916 106.762C102.916 105.61 103.85 104.676 105.002 104.676C106.154 104.676 107.088 105.61 107.088 106.762C107.088 107.914 106.154 108.848 105.002 108.848C103.85 108.848 102.916 107.914 102.916 106.762ZM105.002 105.128C104.1 105.128 103.369 105.859 103.369 106.762C103.369 107.664 104.1 108.395 105.002 108.395C105.904 108.395 106.636 107.664 106.636 106.762C106.636 105.859 105.904 105.128 105.002 105.128ZM103.21 106.762C103.21 105.772 104.012 104.969 105.002 104.969C105.992 104.969 106.795 105.772 106.795 106.762C106.795 107.752 105.992 108.554 105.002 108.554C104.012 108.554 103.21 107.752 103.21 106.762Z" fill="#917976"/>
<path d="M221.422 123.582C218.006 125.29 214.532 126.886 211.012 128.374C218.806 128.898 235.505 131.216 235.505 131.216C231.308 127.975 227.304 124.711 222.36 122.767" fill="#303144"/>
<path d="M220.927 124.157C222.933 125.369 225.053 126.386 227.165 127.403C229.962 128.748 232.71 129.872 235.507 131.216C231.929 127.503 227.903 124.526 223.76 121.439C223.397 121.169 221.535 120.642 221.535 120.642C221.471 120.92 220.698 124.022 220.927 124.157Z" fill="#14151F"/>
<path d="M251.715 128.794C250.719 127.807 249.605 126.942 248.491 126.086L242.88 121.751C242.492 121.449 242.092 121.142 241.624 120.984C241.16 120.826 240.657 120.821 240.167 120.824C236.885 120.836 233.606 120.992 230.343 121.285L228.582 120.944C226.233 120.907 223.881 120.804 221.537 120.639C226.294 124.005 230.988 127.47 235.497 131.156L253.101 131.339C253.056 130.349 252.423 129.502 251.715 128.794Z" fill="#303144"/>
<path d="M227.109 121.01C229.826 122.541 233.077 123.76 235.793 125.29L235.559 113.462C235.209 113.792 227.222 121.07 227.109 121.006L227.109 121.01Z" fill="#14151F"/>
<path d="M246.711 125.492L235.471 125.375L235.535 113.432L246.767 113.374L246.711 125.492Z" fill="#303144"/>
<path d="M184.248 45.1955C184.302 44.9348 184.698 44.9348 184.752 45.1955L185.162 47.1854C185.182 47.2821 185.262 47.3577 185.364 47.3764L186.793 47.7629C187.069 47.8135 187.069 48.1865 186.793 48.2371L185.364 48.6236C185.262 48.6423 185.182 48.7179 185.162 48.8146L184.752 50.8045C184.698 51.0652 184.302 51.0652 184.248 50.8045L183.838 48.8146C183.818 48.7179 183.738 48.6423 183.636 48.6236L182.207 48.2371C181.931 48.1865 181.931 47.8135 182.207 47.7629L183.636 47.3764C183.738 47.3577 183.818 47.2821 183.838 47.1854L184.248 45.1955Z" fill="white"/>
<path d="M223.248 78.228C223.302 77.924 223.698 77.924 223.752 78.228L224.162 80.5496C224.182 80.6624 224.262 80.7506 224.364 80.7725L225.793 81.2234C226.069 81.2825 226.069 81.7175 225.793 81.7766L224.364 82.2275C224.262 82.2494 224.182 82.3376 224.162 82.4504L223.752 84.772C223.698 85.076 223.302 85.076 223.248 84.772L222.838 82.4504C222.818 82.3376 222.738 82.2494 222.636 82.2275L221.207 81.7766C220.931 81.7175 220.931 81.2825 221.207 81.2234L222.636 80.7725C222.738 80.7506 222.818 80.6624 222.838 80.5496L223.248 78.228Z" fill="white"/>
<path d="M210.248 16.228C210.302 15.924 210.698 15.924 210.752 16.228L211.162 18.5496C211.182 18.6624 211.262 18.7506 211.364 18.7725L212.793 19.2234C213.069 19.2825 213.069 19.7175 212.793 19.7766L211.364 20.2275C211.262 20.2494 211.182 20.3376 211.162 20.4504L210.752 22.772C210.698 23.076 210.302 23.076 210.248 22.772L209.838 20.4504C209.818 20.3376 209.738 20.2494 209.636 20.2275L208.207 19.7766C207.931 19.7175 207.931 19.2825 208.207 19.2234L209.636 18.7725C209.738 18.7506 209.818 18.6624 209.838 18.5496L210.248 16.228Z" fill="white"/>
<path d="M248.396 29.4887C248.525 28.8371 249.475 28.8371 249.604 29.4887L250.588 34.4635C250.636 34.7052 250.828 34.8941 251.075 34.9411L254.502 35.9073C255.166 36.0338 255.166 36.9662 254.502 37.0927L251.075 38.0589C250.828 38.1059 250.636 38.2948 250.588 38.5365L249.604 43.5113C249.475 44.1629 248.525 44.1629 248.396 43.5113L247.412 38.5365C247.364 38.2948 247.172 38.1059 246.925 38.0589L243.498 37.0927C242.834 36.9662 242.834 36.0338 243.498 35.9073L246.925 34.9411C247.172 34.8941 247.364 34.7052 247.412 34.4635L248.396 29.4887Z" fill="white"/>
<path d="M235.954 57.4528C228.301 57.4528 222.091 51.0709 222.091 43.2075C222.091 39.4603 223.517 36.0613 225.841 33.5248C226.393 32.923 226 31.8831 225.2 32.0107C217.262 33.2768 211 40.4105 211 48.9056C211 58.336 218.458 66 227.636 66C233.694 66 238.975 62.6753 241.887 57.7173C242.302 57.0094 241.496 56.2495 240.738 56.546C239.252 57.127 237.65 57.4528 235.954 57.4528Z" fill="#FFDCAC"/>
<path d="M208.999 128.341H160.742V115.363C160.742 115.363 168.963 115.363 169.432 115.363C170.831 115.363 177.968 115.381 177.968 115.381C177.968 115.381 183.941 111.102 185.251 110.292C185.472 110.155 185.702 110.018 185.959 110C186.295 109.974 191.901 114.066 194.348 115.522C194.348 115.522 207.419 115.363 209.003 115.363V128.341H208.999Z" fill="#4C5069"/>
<path d="M181.122 116.509H179.215V129H181.122V116.509Z" fill="#14151F"/>
<path d="M184.848 116.509H182.941V129H184.848V116.509Z" fill="#14151F"/>
<path d="M188.706 116.447H186.799V128.938H188.706V116.447Z" fill="#14151F"/>
<path d="M192.706 116.509H190.799V129H192.706V116.509Z" fill="#14151F"/>
<path d="M164.267 118.301C164.24 118.323 164.236 118.363 164.236 118.398C164.205 119.319 164.196 120.239 164.209 121.159C164.209 121.159 165.939 121.19 166.59 121.159C166.59 121.159 166.753 118.434 166.59 118.226C166.59 118.226 164.501 118.115 164.267 118.301Z" fill="#14151F"/>
<path d="M167.917 118.301C167.89 118.323 167.886 118.363 167.886 118.398C167.855 119.319 167.846 120.239 167.859 121.159C167.859 121.159 169.59 121.19 170.24 121.159C170.24 121.159 170.404 118.434 170.24 118.226C170.24 118.226 168.152 118.115 167.917 118.301Z" fill="#14151F"/>
<path d="M171.567 118.301C171.541 118.323 171.536 118.363 171.536 118.398C171.505 119.319 171.497 120.239 171.51 121.159C171.51 121.159 173.24 121.19 173.89 121.159C173.89 121.159 174.054 118.434 173.89 118.226C173.89 118.226 171.802 118.115 171.567 118.301Z" fill="#14151F"/>
<path d="M164.267 122.637C164.24 122.659 164.236 122.699 164.236 122.735C164.205 123.655 164.196 124.575 164.209 125.496C164.209 125.496 165.939 125.527 166.59 125.496C166.59 125.496 166.753 122.77 166.59 122.562C166.59 122.562 164.501 122.451 164.267 122.637Z" fill="#FFDCAC"/>
<path d="M167.917 122.637C167.89 122.659 167.886 122.699 167.886 122.735C167.855 123.655 167.846 124.575 167.859 125.496C167.859 125.496 169.59 125.527 170.24 125.496C170.24 125.496 170.404 122.77 170.24 122.562C170.24 122.562 168.152 122.451 167.917 122.637Z" fill="#14151F"/>
<path d="M171.567 122.571C171.541 122.593 171.536 122.633 171.536 122.668C171.505 123.589 171.497 124.509 171.51 125.429C171.51 125.429 173.24 125.46 173.89 125.429C173.89 125.429 174.054 122.704 173.89 122.496C173.89 122.496 171.802 122.385 171.567 122.571Z" fill="#14151F"/>
<path d="M196.397 118.717C196.371 118.739 196.367 118.779 196.367 118.814C196.336 119.734 196.327 120.655 196.34 121.575C196.34 121.575 198.07 121.606 198.72 121.575C198.72 121.575 198.884 118.85 198.72 118.642C198.72 118.642 196.632 118.531 196.397 118.717Z" fill="#FFDCAC"/>
<path d="M200.048 118.717C200.021 118.739 200.017 118.779 200.017 118.814C199.986 119.734 199.977 120.655 199.99 121.575C199.99 121.575 201.72 121.606 202.371 121.575C202.371 121.575 202.535 118.85 202.371 118.642C202.371 118.642 200.282 118.531 200.048 118.717Z" fill="#14151F"/>
<path d="M203.694 118.717C203.668 118.739 203.663 118.779 203.663 118.814C203.632 119.734 203.624 120.655 203.637 121.575C203.637 121.575 205.367 121.606 206.017 121.575C206.017 121.575 206.181 118.85 206.017 118.642C206.017 118.642 203.929 118.531 203.694 118.717Z" fill="#14151F"/>
<path d="M196.397 123.053C196.371 123.075 196.367 123.115 196.367 123.15C196.336 124.071 196.327 124.991 196.34 125.911C196.34 125.911 198.07 125.942 198.72 125.911C198.72 125.911 198.884 123.186 198.72 122.978C198.72 122.978 196.632 122.867 196.397 123.053Z" fill="#14151F"/>
<path d="M200.048 123.053C200.021 123.075 200.017 123.115 200.017 123.15C199.986 124.071 199.977 124.991 199.99 125.911C199.99 125.911 201.72 125.942 202.371 125.911C202.371 125.911 202.535 123.186 202.371 122.978C202.371 122.978 200.282 122.867 200.048 123.053Z" fill="#14151F"/>
<path d="M203.694 122.982C203.668 123.004 203.663 123.044 203.663 123.08C203.632 124 203.624 124.92 203.637 125.841C203.637 125.841 205.367 125.872 206.017 125.841C206.017 125.841 206.181 123.115 206.017 122.907C206.017 122.907 203.929 122.796 203.694 122.982Z" fill="#FFDCAC"/>
<path d="M156.794 122.774C158.109 121.953 159.484 121.809 160.638 123.16C161.116 123.719 161.299 124.48 161.313 125.215C163.054 124.546 165.236 125.445 165.999 127.146C168.277 126.031 171.107 126.129 173.3 127.396C173.589 127.561 174.075 128.277 173.7 128.589C173.555 128.71 173.352 128.715 173.163 128.717C166.13 128.741 159.098 128.769 152.065 128.793C152.635 127.328 154.634 124.129 156.794 122.774Z" fill="#14151F"/>
</g>
<defs>
<clipPath id="clip0_2331_15938">
<path d="M0 0H390V108C390 119.046 381.046 128 370 128H20C8.9543 128 0 119.046 0 108V0Z" fill="white"/>
</clipPath>
</defs>
</svg>
